<svg width="100" height="100" viewBox="0 0 100 100" fill="none" xmlns="http://www.w3.org/2000/svg">
<path fill-rule="evenodd" clip-rule="evenodd" d="M50 91C72.6437 91 91 72.6437 91 50C91 27.3563 72.6437 9 50 9C27.3563 9 9 27.3563 9 50C9 72.6437 27.3563 91 50 91ZM53.3652 64.6211V40.8042H39.266V45.1831H47.4063V64.6211H39V69H61V64.6211H53.3652ZM52.0351 28.068C51.3257 27.356 50.3857 27 49.2152 27C48.0802 27 47.1491 27.356 46.422 28.068C45.6949 28.78 45.3313 29.6701 45.3313 30.7381C45.3313 31.8061 45.6949 32.705 46.422 33.4348C47.1491 34.1647 48.0802 34.5296 49.2152 34.5296C50.3857 34.5296 51.3257 34.1647 52.0351 33.4348C52.7622 32.705 53.1258 31.8061 53.1258 30.7381C53.1258 29.6701 52.7622 28.78 52.0351 28.068Z" fill="white"/>
</svg>
